<svg viewBox="0 0 512 512" xmlns="http://www.w3.org/2000/svg"><path d="m512 256c0 141.386719-114.613281 256-256 256s-256-114.613281-256-256 114.613281-256 256-256 256 114.613281 256 256zm0 0" fill="#d9eafc"/><g fill="#c3ddf4"><path d="m301.300781 195.519531c0-8.464843-6.863281-15.332031-15.332031-15.332031h-62.332031c-8.46875 0-15.335938-6.867188-15.335938-15.332031 0-8.46875 6.867188-15.335938 15.335938-15.335938h175.332031c8.46875 0 15.332031 6.867188 15.332031 15.335938 0 8.464843 6.863281 15.332031 15.332031 15.332031h39.335938c8.464844 0 15.332031 6.863281 15.332031 15.332031s-6.867187 15.332031-15.332031 15.332031h-101.335938c-8.46875 0-15.332031 6.867188-15.332031 15.335938 0 8.464844-6.863281 15.332031-15.332031 15.332031h-75.332031c-8.46875 0-15.335938-6.867187-15.335938-15.332031 0-8.46875 6.867188-15.335938 15.335938-15.335938h24.332031c8.46875.003907 15.332031-6.863281 15.332031-15.332031zm0 0"/><path d="m152.949219 233.789062h-39.332031c-8.46875 0-15.335938-6.867187-15.335938-15.335937 0-8.464844-6.863281-15.332031-15.332031-15.332031h-77.46875c-3.582031 17.0625-5.480469 34.75-5.480469 52.878906 0 13.300781 1.015625 26.367188 2.972656 39.121094h17.976563c8.46875 0 15.332031-6.863282 15.332031-15.332032s6.867188-15.332031 15.332031-15.332031h101.335938c8.464843 0 15.332031-6.867187 15.332031-15.335937s-6.863281-15.332032-15.332031-15.332032zm0 0"/><path d="m511.992188 255.292969h-171.515626c-8.46875 0-15.332031 6.867187-15.332031 15.335937 0 8.464844 6.863281 15.332032 15.332031 15.332032h62.332032c8.46875 0 15.332031 6.863281 15.332031 15.332031s-6.863281 15.332031-15.332031 15.332031h-24.332032c-8.46875 0-15.332031 6.867188-15.332031 15.335938 0 8.464843 6.863281 15.332031 15.332031 15.332031h75.332032c8.46875 0 15.332031-6.867188 15.332031-15.332031 0-8.46875 6.867187-15.335938 15.335937-15.335938h20.28125c4.722657-19.433594 7.242188-39.734375 7.242188-60.625 0-.234375-.007812-.46875-.007812-.707031zm0 0"/></g><path d="m144.617188 241.574219-41.53125 21.074219 125.808593 247.921874c8.910157.941407 17.949219 1.429688 27.105469 1.429688 8.511719 0 16.921875-.425781 25.21875-1.238281zm0 0"/><path d="m129.785156 249.101562 133.355469 262.792969c6.082031-.164062 12.109375-.546875 18.078125-1.132812l-136.601562-269.1875zm0 0" fill="#232323"/><path d="m47.167969 70.089844-24.945313 12.660156c-3.488281 1.769531-4.878906 6.03125-3.109375 9.519531l85.949219 169.375 37.574219-19.066406-85.949219-169.375c-1.769531-3.488281-6.03125-4.882813-9.519531-3.113281zm0 0" fill="#232323"/><path d="m37.898438 82.734375 85.953124 169.378906-18.789062 9.53125-85.949219-169.375c-1.769531-3.488281-.378906-7.75 3.109375-9.519531l18.789063-9.535156c-3.488281 1.769531-4.882813 6.03125-3.113281 9.519531zm0 0"/><path d="m158.601562 220.574219-80.722656 40.960937c-6.105468 3.101563-8.542968 10.5625-5.445312 16.667969 3.097656 6.109375 10.558594 8.546875 16.667968 5.449219l80.722657-40.964844c6.105469-3.097656 8.546875-10.5625 5.445312-16.667969-3.097656-6.105469-10.558593-8.546875-16.667969-5.445312zm0 0" fill="#ffd00d"/><path d="m87.265625 270.679688c3.097656 6.105468 10.558594 8.542968 16.667969 5.445312l-14.832032 7.527344c-6.109374 3.097656-13.570312.660156-16.667968-5.449219-3.097656-6.105469-.660156-13.566406 5.445312-16.667969l14.832032-7.523437c-6.105469 3.097656-8.546876 10.558593-5.445313 16.667969zm0 0" fill="#ffaf10"/><path d="m97.421875 203.292969-4.386719 13.414062c-.355468 1.097657.242188 2.28125 1.339844 2.636719l13.414062 4.382812c1.097657.359376 2.28125-.238281 2.636719-1.335937l4.382813-13.414063c.359375-1.097656-.238282-2.28125-1.335938-2.636718l-13.414062-4.386719c-1.097656-.355469-2.28125.242187-2.636719 1.339844zm0 0"/><path d="m80.984375 170.910156-4.382813 13.414063c-.359374 1.097656.242188 2.277343 1.339844 2.636719l13.414063 4.382812c1.097656.359375 2.28125-.238281 2.636719-1.335938l4.382812-13.417968c.359375-1.097656-.238281-2.277344-1.335938-2.636719l-13.417968-4.382813c-1.09375-.359374-2.277344.242188-2.636719 1.339844zm0 0"/><path d="m64.554688 138.523438-4.382813 13.417968c-.359375 1.097656.238281 2.277344 1.335937 2.636719l13.414063 4.382813c1.097656.359374 2.28125-.242188 2.636719-1.339844l4.382812-13.414063c.359375-1.097656-.238281-2.277343-1.335937-2.636719l-13.414063-4.382812c-1.097656-.359375-2.28125.238281-2.636718 1.335938zm0 0"/><path d="m48.117188 106.140625-4.382813 13.414063c-.355469 1.097656.242187 2.28125 1.339844 2.636718l13.414062 4.382813c1.097657.359375 2.28125-.238281 2.636719-1.335938l4.382812-13.414062c.359376-1.097657-.238281-2.28125-1.335937-2.636719l-13.414063-4.382812c-1.097656-.359376-2.28125.238281-2.640624 1.335937zm0 0"/><path d="m230.78125 510.761719c8.296875.8125 16.707031 1.238281 25.21875 1.238281 9.15625 0 18.195312-.488281 27.101562-1.429688l125.8125-247.921874-41.53125-21.074219zm0 0"/><path d="m367.382812 241.574219-136.601562 269.1875c5.96875.585937 11.996094.96875 18.078125 1.132812l133.355469-262.792969zm0 0" fill="#232323"/><path d="m464.832031 70.089844 24.945313 12.660156c3.488281 1.769531 4.878906 6.03125 3.109375 9.519531l-85.949219 169.375-37.574219-19.066406 85.949219-169.378906c1.769531-3.484375 6.03125-4.878907 9.519531-3.109375zm0 0" fill="#232323"/><path d="m474.101562 82.734375-85.953124 169.378906 18.789062 9.53125 85.949219-169.375c1.769531-3.488281.378906-7.75-3.109375-9.519531l-18.789063-9.535156c3.488281 1.769531 4.882813 6.03125 3.113281 9.519531zm0 0"/><path d="m353.398438 220.574219 80.722656 40.960937c6.105468 3.101563 8.542968 10.5625 5.445312 16.667969-3.097656 6.109375-10.558594 8.546875-16.667968 5.449219l-80.722657-40.964844c-6.105469-3.097656-8.546875-10.5625-5.445312-16.667969 3.097656-6.105469 10.558593-8.546875 16.667969-5.445312zm0 0" fill="#ffd00d"/><path d="m424.734375 270.679688c-3.097656 6.105468-10.558594 8.542968-16.667969 5.445312l14.832032 7.527344c6.109374 3.097656 13.570312.660156 16.667968-5.449219 3.097656-6.105469.660156-13.566406-5.445312-16.667969l-14.832032-7.523437c6.105469 3.097656 8.546876 10.558593 5.445313 16.667969zm0 0" fill="#ffaf10"/><path d="m414.578125 203.292969 4.386719 13.414062c.355468 1.097657-.242188 2.28125-1.339844 2.636719l-13.414062 4.382812c-1.097657.359376-2.28125-.238281-2.636719-1.335937l-4.382813-13.414063c-.359375-1.097656.238282-2.28125 1.335938-2.636718l13.414062-4.386719c1.097656-.355469 2.28125.242187 2.636719 1.339844zm0 0"/><path d="m431.015625 170.910156 4.382813 13.414063c.359374 1.097656-.242188 2.277343-1.339844 2.636719l-13.414063 4.382812c-1.097656.359375-2.28125-.238281-2.636719-1.335938l-4.382812-13.417968c-.359375-1.097656.238281-2.277344 1.335938-2.636719l13.417968-4.382813c1.09375-.359374 2.277344.242188 2.636719 1.339844zm0 0"/><path d="m447.445312 138.523438 4.382813 13.417968c.359375 1.097656-.238281 2.277344-1.335937 2.636719l-13.414063 4.382813c-1.097656.359374-2.28125-.242188-2.636719-1.339844l-4.382812-13.414063c-.359375-1.097656.238281-2.277343 1.335937-2.636719l13.414063-4.382812c1.097656-.359375 2.28125.238281 2.636718 1.335938zm0 0"/><path d="m463.882812 106.140625 4.382813 13.414063c.355469 1.097656-.242187 2.28125-1.339844 2.636718l-13.414062 4.382813c-1.097657.359375-2.28125-.238281-2.636719-1.335938l-4.382812-13.414062c-.359376-1.097657.238281-2.28125 1.335937-2.636719l13.414063-4.382812c1.097656-.359376 2.28125.238281 2.640624 1.335937zm0 0"/><path d="m452.152344 420.484375-17.878906-55.3125c-5.46875-16.921875-19.757813-29.496094-37.238282-32.769531l-94.972656-17.789063h-92.125l-94.972656 17.789063c-17.480469 3.273437-31.769532 15.847656-37.238282 32.769531l-17.878906 55.3125c46.960938 55.941406 117.394532 91.515625 196.152344 91.515625s149.191406-35.574219 196.152344-91.515625zm0 0"/><path d="m452.152344 420.484375-17.878906-55.3125c-5.46875-16.921875-19.757813-29.496094-37.238282-32.769531l-76.734375-14.375-191.203125 160.347656c37.40625 21.394531 80.722656 33.625 126.902344 33.625 78.757812 0 149.191406-35.574219 196.152344-91.515625zm0 0" fill="#2e4c89"/><path d="m263.78125 365.425781-134.683594 112.949219c37.40625 21.394531 80.722656 33.625 126.902344 33.625 49.960938 0 96.570312-14.324219 135.96875-39.074219zm0 0" fill="#293d7c"/><path d="m312.515625 316.59375s-22.417969 13.066406-56.515625 13.066406-56.515625-13.066406-56.515625-13.066406l6.070313-89.199219h100.890624zm0 0" fill="#232323"/><path d="m310.554688 287.761719-4.109376-60.367188h-100.890624l-4.109376 60.367188-1.960937 28.832031s5.140625 2.992188 14.222656 6.109375l2.050781-28.503906c14.851563 5.78125 28.996094 8.535156 40.242188 8.535156 14.820312 0 34.667969-4.769531 54.554688-14.972656zm0 0"/><path d="m370.957031 82.4375c-12.679687-36.023438-42.980469-82.4375-114.957031-82.4375s-102.277344 46.414062-114.957031 82.4375c-7.398438 21.015625-9.15625 43.589844-5.554688 65.578125 5.28125 32.28125 16.914063 87.738281 36.648438 106.742187 28.480469 27.429688 63.820312 37.976563 83.863281 37.976563 20.046875 0 55.382812-10.550781 83.867188-37.976563 19.730468-19 31.363281-74.460937 36.648437-106.742187 3.597656-21.988281 1.839844-44.5625-5.558594-65.578125zm0 0" fill="#445ea0"/><path d="m187.136719 254.757812c-19.734375-19-31.367188-74.460937-36.652344-106.742187-3.597656-21.988281-1.839844-44.5625 5.558594-65.578125 12.230469-34.746094 40.859375-79.152344 107.457031-82.257812-2.449219-.1132818-4.945312-.179688-7.5-.179688-71.976562 0-102.277344 46.414062-114.957031 82.4375-7.398438 21.015625-9.15625 43.589844-5.554688 65.578125 5.28125 32.28125 16.914063 87.742187 36.648438 106.742187 28.480469 27.429688 63.820312 37.976563 83.863281 37.976563 2.308594 0 4.824219-.148437 7.5-.4375-20.59375-2.21875-51.160156-13.265625-76.363281-37.539063zm0 0" fill="#2e4c89"/><path d="m191.699219 318.027344-76.734375 14.375c-17.480469 3.273437-31.769532 15.847656-37.238282 32.769531l-17.878906 55.3125c46.960938 55.941406 117.394532 91.515625 196.152344 91.515625 46.179688 0 89.496094-12.230469 126.902344-33.625zm0 0" fill="#445ea0"/><path d="m136.042969 82.4375c-4.191407 11.914062-6.5625 24.332031-7.179688 36.859375-.160156 3.210937 2.445313 5.890625 5.664063 5.890625h242.945312c3.21875 0 5.824219-2.679688 5.664063-5.890625-.617188-12.527344-2.988281-24.945313-7.183594-36.859375-1.105469-3.152344-2.351563-6.378906-3.746094-9.652344-.894531-2.09375-2.949219-3.460937-5.226562-3.460937h-221.960938c-2.277343 0-4.332031 1.367187-5.226562 3.460937-1.394531 3.273438-2.640625 6.5-3.75 9.652344zm0 0" fill="#232323"/><path d="m143.863281 119.296875c.617188-12.527344 2.988281-24.945313 7.179688-36.859375 1.109375-3.152344 2.355469-6.378906 3.75-9.652344.894531-2.09375 2.949219-3.460937 5.226562-3.460937h-15c-2.277343 0-4.332031 1.367187-5.226562 3.460937-1.394531 3.273438-2.640625 6.5-3.75 9.652344-4.191407 11.914062-6.5625 24.332031-7.179688 36.859375-.160156 3.210937 2.445313 5.890625 5.664063 5.890625h15c-3.21875 0-5.824219-2.679688-5.664063-5.890625zm0 0"/><path d="m311.648438 191.367188-18.933594-7.882813c-23.5-9.785156-49.929688-9.785156-73.425782 0l-18.9375 7.882813c-22.664062 9.441406-47.636718-7.214844-47.636718-31.765626 0-19.003906 15.40625-34.410156 34.410156-34.410156h137.75c19.007812 0 34.410156 15.40625 34.410156 34.410156 0 24.550782-24.972656 41.207032-47.636718 31.765626zm0 0" fill="#f2b675"/><path d="m256 147.625v-22.433594h68.875c19.003906 0 34.410156 15.40625 34.410156 34.410156 0 24.550782-24.972656 41.203126-47.636718 31.765626l-18.9375-7.882813c-7.480469-3.117187-15.261719-5.234375-23.148438-6.367187l-6.214844-8.015626c-4.761718-6.148437-7.347656-13.703124-7.347656-21.476562zm0 0" fill="#ffc987"/><path d="m167.714844 159.601562c0-19.003906 15.40625-34.410156 34.410156-34.410156h-15c-19.007812 0-34.410156 15.40625-34.410156 34.410156 0 22.480469 20.9375 38.324219 41.871094 33.59375-14.894532-3.382812-26.871094-16.589843-26.871094-33.59375zm0 0" fill="#e5a565"/></svg>