<?xml version="1.0" standalone="no"?><!DOCTYPE svg PUBLIC "-//W3C//DTD SVG 1.1//EN" "http://www.w3.org/Graphics/SVG/1.1/DTD/svg11.dtd"><svg t="1598601428762" class="icon" viewBox="0 0 1024 1024" version="1.1" xmlns="http://www.w3.org/2000/svg" p-id="22891" xmlns:xlink="http://www.w3.org/1999/xlink" width="200" height="200"><defs><style type="text/css"></style></defs><path d="M436.413018 687.639079H207.797071a46.441989 46.441989 0 0 1 1.114 25.511994 123.843971 123.843971 0 0 0-2.229999 67.989984c11.269997 38.639991 156.539963 15.975996 156.539963 15.975996C422.543021 776.683058 381.180031 1024 381.180031 1024h99.074976V732.470068a44.831989 44.831989 0 0 0-43.839989-44.830989z" p-id="22892" fill="#e6e6e6"></path><path d="M885.349912 220.745188C801.505932-17.529756 545.023992 0.30224 545.023992 0.30224c-308.619928 9.039998-321.995925 276.792935-321.995924 276.792935-31.703993 47.679989-4.581999 61.301986-4.581999 61.301986 11.393997 24.769994-83.84198 151.957964-83.841981 151.957964-45.450989 45.449989 40.74399 52.261988 40.743991 52.261988 38.639991 6.810998 9.164998 54.490987 9.164998 54.490987a33.189992 33.189992 0 0 0-4.581999 10.774998h256.48094a123.843971 123.843971 0 0 1 123.844971 123.843971V1024h225.395947c4.458999-31.703993-47.679989-220.070948-47.679989-220.070948-29.474993-131.646969 89.043979-260.939939 89.043979-260.939939C950.862897 359.450156 885.349912 220.744188 885.349912 220.744188z" p-id="22893" fill="#e6e6e6"></path></svg>