<?xml version="1.0" standalone="no"?><!DOCTYPE svg PUBLIC "-//W3C//DTD SVG 1.1//EN" "http://www.w3.org/Graphics/SVG/1.1/DTD/svg11.dtd"><svg t="1598845115628" class="icon" viewBox="0 0 1024 1024" version="1.1" xmlns="http://www.w3.org/2000/svg" p-id="1588" xmlns:xlink="http://www.w3.org/1999/xlink" width="200" height="200"><defs><style type="text/css"></style></defs><path d="M499.834936 697.869245c0 0-20.841677-73.53683-118.568443-126.630049-118.030184-63.057151-168.116929 29.30135-168.116929 29.30135l-48.178279 93.79113c-2.359744 7.66661-2.947122 27.528983 51.320852 38.144762 30.479175 1.573845-19.265786 14.158465-21.429055 39.131229-1.967818 21.6286 18.478863 25.956162 30.674627 29.885658-2.164293 13.371542-1.37737 27.336602-2.75474 50.53393 0 0-6.882757 37.558407 42.665729 49.950645 46.013987 0.584308 91.629907-0.985444 110.11184-1.37737 18.289552-0.590448 32.446993-5.505387 30.67872 40.305985-1.769296 45.818535 0 70.200852 0 70.200852l108.147092 0c-0.195451-31.853475-1.3743-156.915819-3.737114-222.790132C508.291538 712.421682 499.834936 697.869245 499.834936 697.869245z" p-id="1589" fill="#e6e6e6"></path><path d="M916.306232 331.544045C903.721613 142.575206 728.720903 24.598234 554.497906 22.437012c-174.412308-2.166339-357.278149 99.887988-370.453217 297.701263-0.982374 16.912182-0.782829 33.624818 0.786922 50.146097l-1.37737 0.195451c0.590448 18.283412-15.136745 90.054015-69.215408 193.286168-28.709879 70.200852 29.529547 69.029166 29.529547 69.029166l0.405229-0.104377c19.659759-77.280084 69.397556-131.652436 127.177518-176.087461 86.385463-51.878554 156.717298-13.96506 176.38115-7.277754 19.659759 6.686283 46.598294 47.978734 116.013247 47.384194 84.156702-10.809183 110.308315-55.4458 141.769864-58.591443 49.160653 2.358721 35.002189 53.2856 35.002189 53.2856s-2.359744 20.25737-58.795081 42.473347c-90.252537 23.00597-78.259388 167.333076-78.259388 167.333076l-1.964748 309.698504 239.301178 0L840.799538 624.724341c0 0 1.772366-34.806737 14.549368-43.066865 12.784164-8.057513 67.645656-139.018194 58.595536-189.745529C916.89361 372.049574 917.680533 351.795275 916.306232 331.544045z" p-id="1590" fill="#e6e6e6"></path></svg>